<svg xmlns="http://www.w3.org/2000/svg" width="100%" viewBox="0 0 391 497" height="150" xmlns:v="https://vecta.io/nano"><path fill="#5fdbec" d="M1 201c0-.444 0-.889.272-1.981.423-1.958.706-3.267.706-4.576l-.004-99.9.034-16.906.031-15.033c.336-2.796.655-5.192 1.315-7.646 1.657-1.492 3.124-2.817 4.266-4.379 8.72-11.929 25.758-21.95 43.293-13.292 13.091 6.464 26.736 11.797 40.025 17.87l92.269 42.457 36.888 17.228 21.735 9.897 47.45 20.453 52.951 23.048c16.016 7.082 33.354 11.872 45.563 26.101-1.245 8.553-5.564 14.369-13.214 17.671-1.369.591-2.616 1.46-3.961 2.115l-123.109 59.775-187.19 87.782c-13.891 6.619-26.17 4.361-38.567-1.987-8.48-4.342-15.192-10.778-17.954-20.825-.582-4.498-1.655-8.571-1.697-12.654l.2-55.382c4.577-2.06 8.814-4.062 13.157-5.796 2.773-1.107 5.703-1.818 8.926-2.816 1.119-.125 1.874-.14 2.959.091 7.438.074 14.547-.099 22.094-.306 2.478.113 4.517.26 6.727.737 6.976.546 13.782.789 20.589.919.414.008.845-.879 1.598-1.432.78-.082 1.231-.083 2.005.143 7.773-.787 15.223-1.8 22.993-2.891.755-.03 1.189.018 1.817.37 4.5.385 8.822.695 13.107.426 1.619-.102 3.154-1.543 4.854-2.436.126-.062.399.007.707-.073.602-.374.897-.669 1.279-1.047.087-.083.323-.03.742.045 2.676-.953 4.932-1.982 7.299-3.071.11-.061.332.059.731.114 2.023.536 3.647 1.018 5.083 1.704a23.32 23.32 0 0 1-2.829 1.705c-.529.369-.776.659-.999.907.024-.043.101.018-.243.134-.829 1.388-1.314 2.659-1.848 4.2-.374.693-.7 1.116-1.363 1.618-1.118 2.36-1.899 4.642-2.624 7.167.148.567.18.897.153 1.427.267.201.531.206 1.131.247.77.148 1.204.26 1.794.712 5.338 1.771 10.446 2.658 14.851-1.659.015.019-.027-.003.33-.047 1.103-1.371 1.849-2.698 2.608-3.973.014.052-.043-.039.296-.057 1.496-1.199 2.653-2.381 4.197-3.666 1.454-.108 2.521-.113 3.751.058.713.07 1.263-.035 2.187-.18 1.116.046 1.858.132 2.726.542 4.944 3.604 7.991 3.21 9.719-.875.043.036-.044.109.245-.075.49-1.045.691-1.906.903-2.73.012.038-.036-.026.325-.107 1.766-4.455 3.171-8.828 4.576-13.372a.93.93 0 0 1 .359-.62c.36-.438.514-.731.66-.984-.008.039-.08.005.19-.144.464-.709.659-1.27.893-1.802.04.028-.054.004.169-.12.389-.415.554-.707.706-.958-.012.04-.077-.012.2-.152.465-.706.652-1.272.88-1.795.042.043-.07 0 .267-.151 3.981-5.009 3.839-8.49-.263-12.912-.084-.136-.102-.455-.048-.827.421-1.775.787-3.179 1.563-4.666 1.801-.128 3.191-.172 4.766-.045.734-.038 1.282-.246 1.965-.51.134-.057.422-.015.807.031 1.267-.609 2.148-1.264 3.146-1.986.117-.068.38-.009.677-.076.581-.344.865-.62 1.137-.854-.012.042-.045-.04.266-.043.76-.38 1.209-.755 1.685-1.093.027.039-.059.078.196-.043.438-.443.62-.764.928-1.259.346-.369.603-.486 1.206-.545.745-.416 1.18-.809 1.646-1.166.03.036-.052.081.209-.062.428-.496.595-.848.87-1.419a8.53 8.53 0 0 1 1.865-1.534 3.84 3.84 0 0 0 1.033-.95c-.033-.004-.027-.07.344-.005 1.897-.649 3.423-1.363 4.966-2.06.017.017.027.064.112.309.358.448.632.649.867.874-.038.023-.023-.065.072.172.357.449.618.66.844.881-.036.009.017-.042-.003.405.728 3.794 1.476 7.14 2.189 10.453-.034-.034.047-.085.013.288 3.157 4.32 7.417 6.199 12.321 5.567 1.585-.204 2.903-2.485 4.379-3.763.036.053-.064-.027.295-.043 6.104-2.801 6.832-8.016 6.682-13.499-.131-4.796-.372-9.609-.958-14.367-.969-7.862-2.052-15.723-3.466-23.515-1.262-6.953-3.037-13.812-4.433-21.018l4.177-8.672-1.363-.891-3.374 1.724c-7.62 4.048-15.216 7.013-23.041.316-.686-.587-2.16-.41-3.253-.342l-19.118 1.3c-.307.021-.643-.316-.943-.284l-17.231 1.928c-.406.049-.698.81-1.128.927-1.348.367-2.728.737-4.113.818-1.464.086-3.152-.667-4.388-.171-7.229 2.896-14.735 3.725-22.438 4.054-3.35.143-6.607 1.817-9.974 2.394-4.51.773-8.045 6.741-13.474 2.572.966-9.044.97-9.035 8.676-12.17.6-.244 1.243-.621 1.626-1.121 2.087-2.725 4.178-4.345 7.139-.93.4.462 2.089.483 2.627.038 3.228-2.668 6.294-5.533 9.414-8.331 0-1.151.829-.914 1.597-1.041 1.685-.279 3.339-.742 5.006-1.13-.652-1.439-1.38-2.849-1.939-4.323-.913-2.407-2.232-4.811-2.446-7.297-.332-3.868-1.793-6.648-5.175-8.489-7.715-4.198-15.031-2.035-18.668 6.075-1.727 3.851-4.576 5.761-8.115 5.041-5.06-1.028-9.067.094-13.102 2.965-1.529 1.088-3.72 1.274-5.631 1.791l-12.016 3.143c-7.413 1.839-14.767 4.119-22.291 5.223-3.709.544-7.753-1.073-11.623-1.83-1.201-.235-2.327-.858-4.577-1.723l1.574 8.588-7.045.624-.825 1.481c1.716 1.705 3.531 3.323 5.115 5.143 1.279 1.468 2.682 3.032 3.327 4.809 1.781 4.909 2.774 10.138 4.884 14.883 1.71 3.845 4.587 7.17 6.939 10.714-9.617 10.506-22.421 6.794-33.992 7.842.4 2.588.648 4.194.635 5.842-.669.358-1.076.674-1.805 1.137-1.841 1.705-3.36 3.262-5.237 4.829-1.757.521-3.157 1.033-4.996 1.637L1 201z"/><path fill="#fcfefe" d="M27.013 262.069l-3.046.064c-8.23.597-15.548 1.646-22.201 5.93-.425-.044-.595-.053-.766-.063v-66.531c3.01-.578 6.02-.688 9.807-.76 2.19-.567 3.602-1.172 5.015-1.776 1.519-1.558 3.039-3.115 5.164-4.81.998-.487 1.39-.838 1.782-1.189l-.896-5.8c11.572-1.048 24.376 2.664 33.993-7.842-2.352-3.544-5.229-6.869-6.939-10.714-2.11-4.745-3.103-9.974-4.884-14.883-.645-1.777-2.048-3.341-3.327-4.809-1.585-1.819-3.4-3.437-5.115-5.143l.825-1.481 7.045-.624-1.574-8.588c2.25.864 3.376 1.488 4.577 1.723 3.869.757 7.914 2.374 11.623 1.83 7.524-1.103 14.878-3.383 22.291-5.223l12.016-3.143c1.911-.516 4.102-.702 5.631-1.791 4.034-2.871 8.042-3.993 13.102-2.965 3.54.719 6.388-1.19 8.115-5.041 3.638-8.11 10.953-10.273 18.668-6.075 3.382 1.84 4.843 4.621 5.175 8.489.213 2.486 1.533 4.89 2.446 7.297.559 1.474 1.287 2.884 1.939 4.323-1.667.388-3.321.851-5.006 1.13-.768.127-1.597-.11-1.597 1.041-3.12 2.799-6.186 5.663-9.414 8.331-.538.445-2.227.424-2.627-.038-2.961-3.414-5.052-1.794-7.139.93-.383.499-1.026.876-1.626 1.121-7.706 3.135-7.71 3.126-8.676 12.17 5.429 4.169 8.964-1.799 13.474-2.572 3.368-.577 6.624-2.251 9.974-2.394 7.703-.329 15.209-1.158 22.438-4.054 1.237-.495 2.924.258 4.388.171 1.385-.082 2.765-.451 4.113-.818.43-.117.722-.878 1.128-.927l17.231-1.928c.301-.032.636.304.943.284l19.118-1.3c1.093-.068 2.567-.245 3.253.342 7.825 6.697 15.421 3.732 23.041-.316 1.115-.593 2.249-1.15 3.374-1.724l1.363.891c-1.341 2.789-2.682 5.578-4.484 8.863-.76 1.544-1.481 2.675-1.295 3.627 2.508 12.814 5.873 25.51 7.512 38.427 1.287 10.143 4.313 21.1-4.093 30.169 0 0 .1.08-.3.121-3.274.558-6.241 1.763-8.995 1.391-2.554-.345-4.881-2.374-7.308-3.662 0 0-.081.052-.053-.294-.702-3.738-1.433-7.129-2.163-10.521 0 0-.052.051-.094-.208a3.23 3.23 0 0 0-.862-.868s-.015.088-.046-.193c-.315-.474-.599-.668-.883-.861 0 0-.01-.047-.25-.302-1.865.575-3.489 1.404-5.113 2.233 0 0-.006.066-.261.141-.515.367-.775.66-1.035.952-.489.414-.978.828-1.826 1.619-.532.719-.705 1.062-.878 1.404 0 0 .082-.045-.246-.045-.771.385-1.215.769-1.658 1.153-.293.037-.55.153-1.146.654a6.55 6.55 0 0 0-.933 1.248s.086-.039-.244-.058c-.784.346-1.239.711-1.694 1.077 0 0 .033.082-.247.111-.567.303-.855.577-1.142.851a1.98 1.98 0 0 0-.712.021c-.887.137-1.325.193-1.91-.095-.461-1.29-.775-2.235-.845-3.373 1.722-.967 3.199-1.742 4.944-2.598.507-.36.745-.639 1.185-1.168 1.979-1.751 3.755-3.251 5.803-4.827.517-.349.763-.623 1.253-1.142 1.786-1.041 3.328-1.837 5.939-3.186-6.523-4.031-12.555-6.928-17.562-11.065-6.159-5.088-11.651-4.443-17.825-.264-.521.254-.728.5-1.117.958-1.09 1.009-1.914 1.878-2.998 2.888-.732.756-1.203 1.372-1.663 1.998.011.011-.011-.01-.261.152-.492.694-.735 1.226-1.164 1.941-.378.664-.569 1.145-.991 1.851-.375.84-.519 1.454-.739 2.444a30.68 30.68 0 0 0-.048 2.969c.437.708.854 1.107 1.518 1.6.59.179.932.263 1.36.557.086.209.285.616.296.989.017 1.121.022 1.869-.318 2.635-2.679 2.397-5.012 4.776-7.346 7.154l9.266 3.371c.748.253 1.731-.161 2.459.117 2.961 1.128 5.866 2.406 8.791 3.629a4.99 4.99 0 0 0 .158.861c.05 4.58-.04 8.619-.129 12.658 0 0 .111.043-.184.162-.498.671-.701 1.222-.904 1.773 0 0 .065.052-.171.106-.384.365-.533.677-.682.989 0 0 .094.024-.193.166-.497.688-.706 1.235-.915 1.782 0 0 .072.034-.16.104-.363.387-.495.704-.626 1.021a38.78 38.78 0 0 1-.393.75l-4.698 13.179s.048.063-.191.262c-.481 1.025-.723 1.851-.966 2.677 0 0 .087-.072-.331-.041l-9.469.483-2.926-.301a17.44 17.44 0 0 0-2.025.088l-3.922.069c-1.882 1.282-3.042 2.507-4.202 3.732 0 0 .057.09-.231.201-1.089 1.359-1.89 2.607-2.691 3.854 0 0 .042.022-.393.05l-14.587 1.273a51.19 51.19 0 0 1-1.823-.505l-.949-.31c.029-.336-.003-.665.089-1.477l2.722-7.001c.326-.423.651-.846 1.297-1.743a75.53 75.53 0 0 0 1.92-4.113s-.077-.061.178-.098c.504-.327.753-.616 1.003-.906.786-.474 1.572-.948 2.945-1.669 2.908.079 5.228.404 7.602.929.053.2.27.552.362.875.844.774 1.595 1.226 2.346 1.678.301-.669.601-1.339 1.187-2.252 1.459-.849 2.599-1.894 3.812-1.986 7.722-.585 8.502-7.468 12.742-12.939l-22.719 6.148c-.467.346-.675.62-.901.863-.018-.032-.088-.054-.447-.04-3.528 1.678-6.697 3.343-9.866 5.008 0 0-.221-.121-.729-.055-2.779 1.041-5.05 2.016-7.321 2.992 0 0-.236-.053-.624.121-.687.462-.987.749-1.286 1.036 0 0-.272-.069-.825.006l-17.728 1.692-2.04-.201-22.899 2.8c-.451 0-.902 0-2.122-.005l-21.917.272-6.965-.502-22.015.154m56.039-98.153l-8.654 1.401c3.353 4.568 6.169 5.331 10.08 2.911 2.18-1.349 5.022-1.605 7.529-2.459 1.356-.462 2.636-1.144 3.95-1.727-4.337-2.533-8.251-2.585-12.906-.125z"/><path fill="#4e9fec" d="M374.973 341.22l-43.492 21.928-49.92 23.911-61.385 29.332-83.024 39.649-47.807 22.941-33.507 15.66c-1.58.745-2.987 1.858-4.155 3.08-7.036.279-14.39.279-21.889-.009-2.892-1.852-5.947-3.05-8.32-5.056-4.361-3.685-8.32-7.845-12.463-12.172-.308-1.311-.378-2.416-.927-3.176-4.413-6.113-5.392-12.954-5.183-20.33.302-10.65.033-21.316.041-32.256.051-.469.07-.657.337-.602 4.19 7.521 8.046 14.623 15.007 19.901 10.42 7.902 22.21 8.079 33.144 4.533 13.127-4.257 25.273-11.519 37.884-17.393l35.146-16.199 60.868-29.507 57.515-26.924L287.91 336.6l74.843-35.812c7.175-3.531 13.9-8.178 20.279-13.038 3.237-2.467 5.243-6.548 7.85-9.423l.15 32.145-3.888 16.178c-.494 1.867-1.393 3.626-2.107 5.435 0 0-.014-.069-.331-.043-1.765 1.702-3.212 3.379-4.66 5.055 0 0-.031-.063-.246.025a4.52 4.52 0 0 0-.779.965s-.006-.07-.22.029c-.401.393-.589.688-.776.983 0 0 .046-.063-.294-.08-1.146.723-1.953 1.463-2.759 2.203z"/><path fill="#f5f9f9" d="M3.782 339.293c2.778 9.627 9.49 16.063 17.97 20.405 12.397 6.348 24.676 8.606 38.567 1.987l187.19-87.782 123.109-59.775c1.345-.655 2.592-1.524 3.961-2.115 7.65-3.302 11.969-9.118 13.405-17.841.437-.771.69-.995 1.2-1.299 1.109-.011 1.962.058 2.815.127 0 1.067 0 2.133-.375 3.717-1.979 4.235-3.195 7.925.375 11.283 0 3.031 0 6.061-.328 9.63-2.276 2.186-2.105 3.472.328 4.37 0 1.067 0 2.133-.363 3.64l-4.114 4.402c-1.209 1.418-2.185 2.607-3.399 3.885-.474.519-.71.947-1.007 1.55a.95.95 0 0 1-.605.529c-.668.753-1.033 1.434-1.45 2.078-.053-.036.069.003-.254.116-1.433 1.747-2.544 3.381-3.775 5.207-.322.429-.567.601-1.205.711-1.528 1.25-2.709 2.498-4.125 3.956-1.316.828-2.397 1.446-3.739 2.089-.509.26-.756.496-1.229.959-1.578.904-2.93 1.58-4.636 2.182-1.643.712-2.932 1.499-4.459 2.429-.585.272-.933.4-1.623.48-1.233.564-2.124 1.176-3.015 1.787-.001-.001 0 .002-.327-.022-1.142.545-1.956 1.114-3.076 1.865-4.22 2.019-8.135 3.855-12.435 5.587-4.651 2.092-8.917 4.287-13.345 6.58-.162.097-.531.176-.796.195-.522.25-.779.48-1.199.809-.163.098-.532.186-.795.206-.523.245-.784.469-1.211.789-.167.095-.542.175-.802.189-.518.233-.776.453-1.3.836-1.039.458-1.812.751-2.822 1.063-.553.122-.787.322-1.124.745-.189.124-.614.278-.987.238-1.882.823-3.389 1.685-5.137 2.683-.587.252-.935.368-1.559.498-.547.252-.817.491-1.349.94a110.83 110.83 0 0 1-6.778 2.958c-.494.252-.736.477-1.205.843-.564.252-.9.364-1.561.378-.978.372-1.632.841-2.548 1.497a17.43 17.43 0 0 1-2.936 1.123c-.766.33-1.234.661-1.992 1.181-2.803 1.379-5.317 2.57-8.178 3.74-1.454.585-2.56 1.191-3.714 1.859-.049.062-.205.079-.319.099s-.469.301-.791.518l-118.25 55.475-98.891 45.272c-5.442 2.439-11.81 4.138-17.697 3.997-14.97-.358-26.541-7.673-34.78-20.572-1.384-2.092-2.74-3.831-4.096-5.57l.281-37.369c1.021.683 1.761 1.673 2.501 2.662z"/><path fill="#a1e6ed" d="M45.533 1c.607.604.576 1.609.913 1.752l30.827 12.987 56.261 25.892c-5.506-1.582-10.909-3.206-16.012-5.497L66.839 13.047c-9.604-4.132-18.622-9.596-30.055-9.305C18.799 4.2 1.376 22.26 2.892 37.57c.571 5.763.111 11.627.121 17.445-.319 2.396-.638 4.792-1.23 7.586C1.34 62.999 1.17 63 1 63l.301-35.217c5.485-13.364 14.96-21.735 28.66-25.388.128-.034.031-.911.039-1.395h15.533z"/><path fill="#74aedf" d="M9.01 480.483c-2.468-3.119-4.952-6.603-7.723-9.785C1 454.312 1 437.625 1.241 420.583c.696-.076 1.151.202 1.644.809.04.773.042 1.216-.138 1.813-.067.701.047 1.249.162 1.797L2.9 456.977c-.209 7.376.77 14.216 5.183 20.33.549.76.62 1.866.927 3.176z"/><path fill="#8ae9f6" d="M1.958 95.012l.02 99.431c0 1.309-.283 2.619-.706 4.243L1.24 95.471c.24-.466.719-.46.719-.46z"/><path fill="#62c6ed" d="M2.847 421.063l-1.606-.948L1 374.469c1.356 1.27 2.712 3.009 3.702 5.229-.827 2.296-1.666 4.105-1.69 5.926l-.166 35.439z"/><path fill="#68ceef" d="M387.756 229.812l3.88-3.772c.363 15.981.363 32.002.105 48.476-.431.443-.603.433-.784-.028l-1.109-40.772c-.048-1.325-1.364-2.603-2.092-3.903z"/><path fill="#8be2ef" d="M3.798 338.873c-.756-.569-1.496-1.558-2.517-2.71L1 268.469c.171-.459.341-.45.763-.043.248 1.126.245 1.854.241 2.583l.096 55.21c.042 4.084 1.115 8.156 1.697 12.654z"/><path fill="#a1e6ed" d="M384.083 158.9c2.442 3.914 4.883 7.828 7.621 11.421.296 4.701.296 9.723.047 15.427-1.07 2.216-1.891 3.751-2.736 4.845.971-7.787 2.01-15.129-1.055-22.291l-3.878-9.401z"/><path fill="#82b4e3" d="M385.36 331.947c.392-1.672 1.291-3.432 1.785-5.298l4.127-16.187c.25-.451.729-.462.729-.462v14.534c-1.004 1.22-2.16 1.84-2.976 2.76-1.238 1.396-2.239 3.001-3.664 4.653z"/><path fill="#86e0ef" d="M1.974 94.542c-.016.47-.495.463-.734.461C1 84.646 1 74.292 1 63.469c.17-.469.34-.47.766-.468.251 4.88.247 9.757.242 14.635l-.034 16.906z"/><path fill="#6ea6d8" d="M392 309.531c0 .469-.479.48-.718.489l-.378-32.055a74.12 74.12 0 0 1 .061-3.027l.776.046.259 34.547z"/><path d="M392 207.542c-3.569-2.899-2.354-6.59-.375-10.424.375 3.244.375 6.605.375 10.424zm-2.961-16.509l2.712-4.818c.249 1.827.249 3.869.249 6.348-.853.369-1.706.3-2.817-.01-.22-.667-.182-1.094-.144-1.52zM392 221.6c-2.433-.498-2.604-1.784-.328-3.516.328.983.328 2.049.328 3.516z" fill="#e2eef1"/><path fill="#75e5f0" d="M389.015 190.592l-.088 2.04c-.251.545-.504.77-.948 1.164-12.393-13.684-29.731-18.474-45.747-25.555l-52.951-23.048-47.45-20.453c-7.298-3.178-14.515-6.544-21.735-9.897l-36.888-17.228-92.269-42.457c-13.29-6.074-26.934-11.406-40.025-17.87C33.378 28.628 16.34 38.65 7.62 50.579c-1.142 1.562-2.609 2.886-4.266 4.379-.351-5.76.109-11.625-.462-17.387C1.376 22.26 18.799 4.2 36.785 3.742c11.432-.291 20.451 5.174 30.055 9.305 17.049 7.335 33.747 15.481 50.682 23.086 5.103 2.292 10.507 3.915 16.171 5.825.398-.019.333.002.398.316 1.847 1.437 3.527 2.787 5.428 3.649l76.779 34.625c3.423 1.528 7.188 2.292 10.794 3.409 0 0-.071.009-.002.32 2.007 1.492 3.847 2.888 5.897 3.819l75.818 34.287 54.923 24.917c5.086 2.298 10.242 4.44 15.366 6.654 0 0-.071.011-.037.328 1.711 1.767 3.388 3.217 5.065 4.667 0 0-.062.008-.05-.021l3.889 9.372c3.064 7.162 2.025 14.505 1.055 22.291z"/><path d="M182.868 227.028c-2.98-.851-5.885-2.129-8.846-3.257-.728-.277-1.711.136-2.459-.117l-9.266-3.371c2.333-2.378 4.667-4.757 7.522-6.881 4.386 4.267 8.075 8.553 14.202 9.044l-1.153 4.582zm50.364-3.143c8.047-9.053 5.021-20.01 3.734-30.153-1.639-12.917-5.004-25.613-7.512-38.427-.186-.953.535-2.083 1.142-3.322 1.856 6.709 3.631 13.569 4.893 20.521 1.414 7.792 2.498 15.652 3.466 23.515.586 4.757.827 9.571.958 14.367.15 5.483-.577 10.699-6.682 13.499z" fill="#75d9e7"/><path fill="#e3fbfd" d="M184.431 222.363c-6.537-.407-10.226-4.694-14.266-8.98-.182-1.021-.187-1.769.072-2.829.774-.071 1.284.17 1.977.69 5.518 6.288 11.862 8.427 19.571 5.344a27.09 27.09 0 0 1 .945 3.414c-.38.983-.762 1.386-1.145 1.79 0 0-.288-.042-.764.017-.92.152-1.364.245-1.808.338l-4.581.216z"/><path d="M2.3 270.836c-.292-.557-.289-1.285-.283-2.376 6.402-4.681 13.72-5.73 21.586-6.217-2.443.98-5.374 1.69-8.147 2.797-4.343 1.734-8.58 3.735-13.157 5.796zm78.055-8.46c7.064-1.179 14.451-2.131 22.255-2.949-7.033 1.149-14.482 2.162-22.255 2.949zm53.529-8.562c2.77-1.719 5.938-3.384 9.404-4.735-.715 1.958-1.659 3.464 1.049 4.609 1.03.435 1.728 1.654 2.577 2.516l-7.36-.934c-2.023-.44-3.647-.921-5.67-1.458zm82.354-31.691c2.46.915 4.787 2.944 7.341 3.289 2.754.372 5.721-.834 8.959-1.444-1.076 1.237-2.393 3.518-3.978 3.722-4.905.632-9.165-1.247-12.321-5.567zm-111.073 37.733c5.532-.844 11.257-1.383 17.408-1.935-1.147.818-2.682 2.26-4.301 2.361-4.285.269-8.606-.042-13.107-.426zm-49.002 2.891c6.879-.421 13.928-.514 21.418-.519.017.558-.414 1.446-.828 1.438-6.808-.13-13.613-.373-20.589-.919zm-28.82-.432c6.726-.317 13.781-.389 21.246-.366-6.699.267-13.808.439-21.246.366zm104.795 11.32c4.562-.755 9.279-1.17 14.416-1.632-3.971 4.289-9.078 3.403-14.416 1.632zm42.139-12.768c1.125-4.163 2.612-8.408 4.337-12.927-1.166 4.099-2.571 8.472-4.337 12.927zm-11.193 3.786c2.892-.475 5.909-.625 9.301-.844-1.31 4.053-4.357 4.447-9.301.844zm20.095-23.885c-.248-3.887-.158-7.926-.124-12.37 3.962 3.88 4.105 7.361.124 12.37zm30.856-29.386c.75 2.944 1.48 6.336 2.217 10.107a187.34 187.34 0 0 1-2.217-10.107zm-88.182 45.389c1.852-1.051 4.123-2.026 6.792-3.006-1.859 1.024-4.116 2.053-6.792 3.006zm5.832 7.311c-.508 2.093-1.354 4.264-2.44 6.679.541-2.038 1.322-4.319 2.44-6.679zm18.538 3.818c.821-1.207 1.982-2.432 3.476-3.609-.823 1.229-1.98 2.41-3.476 3.609zm56.954-57.099c1.254-.894 2.878-1.724 4.726-2.315-1.303.952-2.829 1.666-4.726 2.315z" fill="#75d9e7"/><path fill="#8ae9f6" d="M15.465 198.942c-1.055.595-2.468 1.2-4.219 1.675 1.062-.642 2.462-1.153 4.219-1.675z"/><path d="M147.319 271.93c.444-1.204 1.245-2.452 2.32-3.862-.472 1.165-1.218 2.492-2.32 3.862zm-12.424-13.666c-.189 1.097-.723 2.31-1.528 3.727.213-1.068.699-2.34 1.528-3.727zm57.074-36.426c-.003-.449.38-.852.907-1.49.583-.291 1.022-.347 1.792-.416-.55.643-1.431 1.297-2.698 1.906zm-18.92 41.866c-.047-.643.196-1.469.665-2.531.026.625-.175 1.486-.665 2.531zm-14.878.587c.279-.218.721-.262 1.489-.223-.225.188-.775.293-1.489.223z" fill="#75d9e7"/><path fill="#8ae9f6" d="M22.507 192.976c-.131.309-.524.66-1.2 1 .124-.326.531-.642 1.2-1z"/><path d="M182.031 242.714c-.075-.411.128-.962.584-1.676.067.404-.12.97-.584 1.676zm7.166-20.397c.259-.264.703-.357 1.489-.452-.207.206-.755.414-1.489.452zm12.015-6.38c.133-.361.576-.746 1.318-1.166-.137.357-.572.75-1.318 1.166zm-21.15 29.809c-.06-.397.149-.944.606-1.66.053.391-.142.951-.606 1.66zm17.134-26.868c.143-.362.598-.727 1.356-1.112-.147.356-.595.732-1.356 1.112zm-16.071 24.946c-.075-.188.074-.499.471-.904.083.198-.082.489-.471.904zm-1.913 3.051c-.074-.172.057-.489.429-.914.085.184-.069.477-.429.914zm16.581-27.1c-.01-.207.277-.481.857-.826.008.205-.276.482-.857.826zm-71.96 37.998c-.009-.207.29-.494.89-.872.007.203-.288.498-.89.872zm12.304-.55c.033.211-.217.501-.745.87-.032-.211.215-.501.745-.87zm69.664-45.467c-.031-.22.229-.512.777-.876.03.22-.228.512-.777.876zm-6.723 5.986c-.069-.193.117-.508.553-.954.067.19-.115.511-.553.954zm-69.864 54.934c-.002-.195.428-.052.612.08-.08.126-.345.12-.612-.08zm73.852-57.967c-.088-.199.085-.542.51-1.043.085.194-.083.547-.51 1.043zm9.189-5.659c.199-.052.483.141.836.593-.204.057-.478-.145-.836-.593zm.939 1.046c.178-.035.452.168.802.621-.184.039-.446-.172-.802-.621z" fill="#75d9e7"/><path d="M380.401 337.07c1.093-1.65 2.541-3.327 4.34-5.021-1.094 1.653-2.54 3.324-4.34 5.021zm-5.095 4.069c.473-.659 1.279-1.399 2.455-2.096-.46.7-1.291 1.358-2.455 2.096zm2.995-2.103c-.089-.233.099-.528.535-.92.08.221-.09.54-.535.92zm.993-1.012c-.086-.23.102-.523.54-.911.077.219-.094.534-.54.911z" fill="#82b4e3"/><path d="M378.963 153.63a264.54 264.54 0 0 1-15.235-6.328l-54.923-24.917-75.818-34.287c-2.051-.931-3.891-2.328-5.892-3.855 4.543 1.47 9.233 3.101 13.741 5.138l46.255 21.15 64.471 28.751c9.285 4.248 18.192 9.323 27.402 14.348zM226.938 83.627c-3.454-.785-7.219-1.549-10.642-3.077l-76.779-34.625c-1.901-.863-3.581-2.212-5.425-3.683 4.668 1.566 9.464 3.33 14.113 5.421L204.1 73.006l22.837 10.621zm157.138 74.969c-1.631-1.096-3.308-2.546-5.011-4.348 1.637 1.097 3.301 2.545 5.011 4.348z" fill="#a1e6ed"/><path fill="#63daeb" d="M192.029 216.395c-7.953 3.276-14.298 1.137-19.903-5.479-1.03-.945-1.789-1.283-2.547-1.622-.342-.085-.684-.169-1.336-.634-.698-.794-1.087-1.209-1.477-1.624-.003-.762-.006-1.523.317-2.872.458-1.21.59-1.833.721-2.456.191-.481.382-.962 1.031-1.769.686-.871.914-1.416 1.143-1.96 0 0 .022.021.331-.046.74-.739 1.172-1.411 1.604-2.083.824-.868 1.647-1.737 2.966-2.831.782-.4.99-.642 1.119-.952 5.944-4.099 11.436-4.745 17.595.344 5.007 4.137 11.038 7.033 17.562 11.065l-6.198 3.28c-.757.601-1.012.862-1.266 1.123l-5.788 4.849c-.706.616-.951.884-1.197 1.152l-4.676 2.516z"/><path fill="#5fdbec" d="M146.968 256.405c-.903-1.062-1.601-2.281-2.631-2.716-2.708-1.145-1.764-2.651-.69-4.623.062-.328.132-.305.399-.356a3.53 3.53 0 0 0 .911-.852l22.46-6.077c-4.24 5.47-5.02 12.354-12.742 12.939-1.213.092-2.353 1.137-4.143 1.994-1.509.25-2.402.247-3.295.244 0 0-.216-.353-.27-.552z"/><path fill="#85dbe5" d="M83.458 163.771c4.249-2.315 8.163-2.263 12.5.27-1.314.583-2.595 1.266-3.95 1.727-2.508.854-5.349 1.111-7.529 2.459-3.911 2.42-6.727 1.657-10.08-2.911l9.059-1.546z"/><path fill="#75d9e7" d="M147.33 257.279c.8-.32 1.693-.317 2.917-.322.031.661-.27 1.331-.571 2-.751-.452-1.502-.904-2.346-1.678z"/><path d="M171.652 195.991c-.171.531-.603 1.202-1.355 1.931.152-.559.623-1.174 1.355-1.931zm-1.988 13.513c.673.129 1.431.467 2.277 1.133-.422.087-.932-.153-1.717-.455-.276-.061-.475-.468-.561-.677zm-2.879-2.158c.369.105.758.52 1.209 1.221-.355-.113-.772-.512-1.209-1.221zm.787-5.412c.1.398-.031 1.021-.412 1.857-.106-.403.037-1.017.412-1.857zm2.156-3.793c.022.383-.207.928-.706 1.615-.029-.389.214-.921.706-1.615zm6.038-5.995c.102.231-.107.473-.622.732-.106-.232.101-.477.622-.732z" fill="#8bdce7"/><path fill="#75d9e7" d="M144.698 247.929c.045.196-.17.462-.634.812-.041-.192.167-.466.634-.812z"/><path d="M203.961 207.802c-.017-.185.237-.446.75-.802.013.179-.233.453-.75.802zm-6.988 5.996c-.023-.187.223-.455.726-.82.019.181-.219.46-.726.82z" fill="#e3fbfd"/><path fill="#27c4fc" d="M390.957 274.487l-.098 3.002c-2.585 3.712-4.591 7.793-7.828 10.26-6.378 4.861-13.104 9.508-20.279 13.038L287.91 336.6l-45.069 21.931-57.515 26.924-60.868 29.507c-11.634 5.57-23.453 10.752-35.146 16.199-12.611 5.875-24.757 13.136-37.884 17.393-10.933 3.546-22.723 3.369-33.144-4.533-6.961-5.278-10.817-12.38-15.022-20.108-.264-.449-.334-.861-.334-.861a31.03 31.03 0 0 0-.044-1.659l.128-35.769c.024-1.82.863-3.63 1.718-5.572 8.605 12.417 20.176 19.733 35.145 20.091 5.888.141 12.255-1.558 17.697-3.997l98.891-45.272 118.387-55.4c.713-.2.816-.357.767-.614l.534-.064c1.496-.648 2.615-1.251 3.734-1.853l8.129-3.75c1.057-.514 1.524-.852 1.992-1.19.792-.313 1.584-.626 2.941-1.097 1.233-.582 1.901-1.005 2.569-1.428l1.492-.495c.722-.39.962-.62 1.203-.85l6.8-2.952c.808-.466 1.08-.699 1.352-.933.347-.116.695-.233 1.619-.464 2.109-.964 3.642-1.814 5.174-2.663a14.12 14.12 0 0 1 .855-.276c.758-.231.987-.446 1.119-.766l2.849-1.046c.785-.394 1.041-.621 1.297-.848l.809-.183c.691-.336.949-.568 1.207-.801a44.92 44.92 0 0 0 .798-.199c.685-.346.941-.581 1.197-.815 0 0 .369-.079.903-.167 4.809-2.22 9.083-4.352 13.358-6.484l12.36-5.666c1.442-.728 2.267-1.297 3.093-1.866 0 0-.001-.002.335.003 1.232-.578 2.128-1.161 3.023-1.745.347-.128.694-.256 1.612-.484 1.874-.866 3.177-1.632 4.481-2.399l4.542-2.282c.734-.489.983-.723 1.231-.957 1.081-.618 2.162-1.236 3.808-2.088 1.757-1.467 2.949-2.701 4.141-3.936.291-.107.537-.279 1.174-.814 1.552-1.937 2.667-3.575 3.783-5.214 0 0-.122-.039.216-.101.715-.725 1.092-1.389 1.469-2.053 0 0 .239-.282.543-.55.537-.694.771-1.121 1.005-1.547l3.16-3.795c.961 1.07 2.278 2.349 2.325 3.673l1.109 40.772z"/><path fill="#62c6ed" d="M2.746 423.205c.182-.154.252.258.267.464-.003.394-.022.582-.074 1.051-.147-.267-.261-.814-.194-1.516z"/><path d="M337.162 265.431c-3.889 2.236-8.164 4.368-12.811 6.492a155.06 155.06 0 0 1 12.811-6.492zm43.646-27.231c-.793 1.526-1.909 3.165-3.339 4.909.796-1.528 1.906-3.163 3.339-4.909zm-68.026 38.881c-1.159.889-2.691 1.739-4.56 2.568 1.171-.883 2.679-1.745 4.56-2.568zm63.045-32.963c-.846 1.232-2.037 2.466-3.56 3.724.851-1.225 2.032-2.473 3.56-3.724zm-13.729 9.186c-.949.841-2.253 1.607-3.888 2.33.956-.831 2.245-1.617 3.888-2.33zm-82.56 39.618c-.771.624-1.89 1.226-3.337 1.813.777-.622 1.883-1.228 3.337-1.813zm73.136-34.943c-.499.593-1.325 1.162-2.461 1.707.504-.593 1.319-1.162 2.461-1.707zm3.342-1.766c-.553.631-1.449 1.215-2.679 1.793.556-.617 1.446-1.229 2.679-1.793zm-60.824 29.168c-.344.52-1.011.943-1.983 1.338.351-.497 1.004-.967 1.983-1.338zm87.319-49.375c-.074.592-.451 1.256-1.113 2.017.08-.584.445-1.265 1.113-2.017zm-92.802 51.995c-.169.34-.637.678-1.403 1.004.169-.343.637-.675 1.403-1.004zm94.415-54.074c.005.336-.229.763-.704 1.283-.006-.335.23-.764.704-1.283zm-86.165 50.233c.012.203-.228.433-.723.683-.013-.206.229-.431.723-.683zm-22.455 10.72c.162.237.06.394-.332.377-.137-.076.218-.357.332-.377zm92.459-44.716c.013.209-.235.444-.743.704-.013-.209.234-.444.743-.704zm-61.877 30.098c.005.219-.267.453-.813.707-.004-.217.266-.455.813-.707zm8.808-4.163c.105.3-.125.515-.694.623-.093-.301.14-.501.694-.623zm4.121-1.9c.004.213-.252.439-.771.669-.005-.216.253-.436.771-.669zm2.013-.978c.005.212-.252.445-.777.686-.007-.216.254-.441.777-.686zm1.993-1.015c.009.216-.248.45-.77.698-.009-.218.248-.448.77-.698z" fill="#bbf2fb"/></svg>